<svg width="266" height="410" viewBox="0 0 266 410" fill="none" xmlns="http://www.w3.org/2000/svg">
<g clip-path="url(#clip0_588_1736)">
<path d="M248.499 407.402C256.406 405.266 266.028 396.383 263.968 384.174C262.947 378.118 259.025 374.199 254.959 371.664C249.335 368.158 242.929 366.837 236.757 366.503C229.637 366.118 222.525 367.089 215.458 368.116C208.482 369.129 201.505 370.036 194.498 370.59C167.077 372.741 139.489 370.693 112.687 364.515C106.072 362.989 99.4969 361.198 92.9612 359.142C86.7679 357.319 80.7127 355.056 74.842 352.369C67.0717 348.639 54.4352 341.379 55.4655 327.933C56.0119 320.804 60.2099 315.11 64.4443 311.143C69.5642 306.347 75.4886 303.191 81.2912 300.127C108.281 285.872 135.324 271.786 162.341 257.618C168.646 254.311 174.993 251.092 181.112 247.217C186.842 243.589 192.544 239.375 197.155 233.547C201.182 228.458 204.78 221.625 204.653 213.987C204.548 207.652 201.666 202.277 198.135 198.26C189.395 188.313 177.032 184.281 165.858 182.168C151.975 179.544 137.891 179.558 123.999 177.023C112.783 174.977 100.798 171.027 91.6752 161.771C87.8163 158.006 85.0869 153.236 83.7952 148.002C82.6304 142.519 83.1966 136.81 85.4156 131.663C87.8868 125.76 91.8285 121.058 95.9733 117.208C100.734 112.846 106.134 109.238 111.986 106.509C124.307 100.637 137.262 97.5802 149.883 93.0742C156.072 90.8644 162.324 88.4412 168.071 84.6455C172.94 81.4297 178.244 77.0952 180.953 70.6493C186.542 57.35 173.208 49.4237 165.653 46.4214C160.518 44.4735 155.228 42.9592 149.84 41.8942C148.701 41.6496 149.184 39.3753 150.318 39.6188C155.99 40.7246 161.548 42.3477 166.924 44.4679C171.48 46.361 176.181 48.8489 179.759 53.1302C181.389 55.0631 182.594 57.3172 183.295 59.746C183.997 62.1748 184.18 64.7241 183.833 67.2283C182.885 73.6095 178.765 78.5263 174.895 82.0877C169.778 86.7973 163.943 89.8729 158.027 92.38C151.796 95.0205 145.434 97.0784 139.073 99.0969C126.363 103.13 113.083 106.725 101.609 115.307C93.5833 121.311 82.6799 132.568 85.3497 146.522C86.5349 152.716 90.1338 157.558 94.0175 161.12C98.5784 165.18 103.838 168.378 109.541 170.56C134.966 180.793 162.949 173.475 187.719 187.374C196.141 192.1 206.371 200.704 206.453 214.241C206.496 221.274 203.677 227.724 200.192 232.822C196.018 238.928 190.614 243.443 185.115 247.217C179.324 251.045 173.312 254.526 167.109 257.642C160.334 261.202 153.556 264.756 146.778 268.306L105.641 289.88L85.2013 300.6C78.9632 303.871 72.5648 307.01 66.893 311.812C62.2489 315.745 56.7621 322.196 57.236 330.206C57.6123 336.568 61.8381 341.159 65.6996 344.228C70.6998 348.203 76.3168 350.774 81.9054 352.91C88.3516 355.374 94.9037 357.418 101.469 359.256C114.916 363.014 128.64 365.701 142.512 367.29C156.35 368.883 170.29 369.403 184.208 368.844C191.24 368.561 198.262 367.999 205.272 367.157C212.498 366.286 219.693 364.945 226.938 364.35C233.491 363.812 240.108 363.937 246.561 365.666C251.95 367.111 257.642 369.685 261.733 374.707C264.748 378.542 266.257 383.346 265.978 388.216C265.701 393.076 263.968 397.74 261.005 401.602C257.996 405.547 253.767 408.386 248.977 409.678C247.847 409.983 247.364 407.709 248.499 407.402L248.499 407.402Z" fill="#E6E6E6"/>
<path d="M45.2621 408.479H250.702V409.9H45.2621V408.479Z" fill="#3F3D56"/>
<path d="M61.088 341.552C53.6759 341.552 47.6672 335.543 47.6672 328.13C47.6672 320.717 53.6759 314.708 61.088 314.708C68.5001 314.708 74.5088 320.717 74.5088 328.13C74.5088 335.543 68.5001 341.552 61.088 341.552Z" fill="#E6E6E6"/>
<path d="M200.329 220.221C192.917 220.221 186.908 214.212 186.908 206.799C186.908 199.386 192.917 193.377 200.329 193.377C207.741 193.377 213.75 199.386 213.75 206.799C213.75 214.212 207.741 220.221 200.329 220.221Z" fill="#E6E6E6"/>
<path d="M175.349 355.164C175.349 355.164 186.95 370.883 189.569 373.503C192.189 376.123 192.937 385.853 192.937 385.853L188.447 396.333L191.066 401.572L211.275 381.362L189.569 349.176L175.349 355.164Z" fill="#FFB8B8"/>
<path d="M125.95 258.979C125.95 258.979 167.942 386.941 172.432 389.935C176.923 392.929 199.039 374.136 205.401 369.645C211.763 365.154 157.385 279.715 157.385 279.715C165.992 251.645 161.876 245.131 161.876 245.131L125.95 258.979Z" fill="#2F2E41"/>
<path d="M191.815 398.578C191.815 398.578 191.815 394.086 190.369 391.845C188.924 389.604 186.201 399.7 186.201 399.7C186.201 399.7 169.735 404.191 177.22 409.057C184.704 413.922 206.784 398.578 213.146 394.461C219.508 390.344 217.262 385.478 213.894 382.11L207.345 375.561L191.815 398.578Z" fill="#2F2E41"/>
<path d="M112.478 363.397C112.478 363.397 109.11 373.128 106.116 382.485C103.122 391.841 88.9017 396.707 88.9017 396.707L86.282 403.443L94.1409 407.186L116.969 401.572C116.969 401.572 116.22 394.087 116.22 391.467C116.22 388.847 128.196 366.766 128.196 366.766L112.478 363.397Z" fill="#FFB8B8"/>
<path d="M142.042 147.075C133.362 147.075 126.325 140.037 126.325 131.356C126.325 122.674 133.362 115.637 142.042 115.637C150.723 115.637 157.76 122.674 157.76 131.356C157.76 140.037 150.723 147.075 142.042 147.075Z" fill="#FFB8B8"/>
<path d="M150.65 139.59C150.65 141.835 161.876 159.051 161.876 159.051L145.43 166.393L137.926 144.829L150.65 139.59Z" fill="#FFB8B8"/>
<path d="M135.68 221.553C132.593 221.537 129.622 222.733 127.405 224.883C125.189 227.033 123.904 229.967 123.826 233.054L123.331 252.617L120.711 257.108C120.711 257.108 104.593 377.316 104.593 381.059C104.593 384.802 120.598 395.123 129.954 394.374C134.582 394.004 144.959 351.48 149.076 328.199C152.007 311.625 154.868 293.588 157.741 280.273C158.7 275.472 159.956 270.735 161.502 266.09C169.735 243.26 155.514 221.553 155.514 221.553H135.68V221.553Z" fill="#2F2E41"/>
<path d="M92.0826 401.759C92.0826 401.759 90.0243 402.32 92.2697 401.571C94.5151 400.823 93.7666 396.706 93.6743 394.614C93.582 392.521 71.6871 399.326 71.6871 404.566C71.6871 409.805 99.7543 409.805 107.987 409.057C116.22 408.308 118.092 409.057 119.214 403.817C120.337 398.577 116.033 391.279 116.033 391.279L92.0826 401.759Z" fill="#2F2E41"/>
<path d="M154.028 231.983C151.102 231.983 144.807 224.465 141.513 227.76C139.117 230.156 137.084 232.458 135.29 234.488C130.141 240.318 125.64 245.66 122.512 241.827C122.039 241.248 123.629 242.586 122.303 241.684C121.754 241.31 121.334 240.773 121.102 240.15C120.871 239.526 120.839 238.846 121.011 238.204C125.549 223.983 128.376 210.36 124.767 198.981C124.499 198.078 124.371 197.139 124.387 196.196C124.387 196.059 124.38 195.921 124.368 195.783C124.177 193.683 124.225 186.162 132.841 177.545C140.716 169.669 142.227 164.83 142.426 162.646C142.473 162.137 155.168 148.966 155.168 148.966C155.832 148.687 156.572 148.641 157.266 148.836C157.96 149.03 158.567 149.454 158.99 150.039L163.056 155.63C167.476 164.382 169.405 174.181 168.632 183.956C167.531 196.643 165.62 221.734 164.05 230.785C163.92 231.609 163.483 232.354 162.826 232.87C162.374 233.221 161.834 233.442 161.266 233.509C160.697 233.576 160.121 233.487 159.599 233.252C157.853 232.439 155.954 232.007 154.028 231.983Z" fill="#FBE4B8"/>
<path d="M138.27 131.956L141.092 128.974C140.857 144.676 126.043 153.437 126.043 153.437L159.118 150.14L159.954 145.975L161.682 149.405L165.72 148.382L166.882 145.842L169.374 147.199L164.26 127.006C159.21 107.743 143.812 110.569 143.812 110.569C122.251 103.825 124.894 124.391 124.894 124.391L138.27 131.956Z" fill="#2F2E41"/>
<path opacity="0.2" d="M150.867 333.29L156.865 280.234L149.49 329.381L150.867 333.29Z" fill="black"/>
<path d="M161.543 119.088C156.95 119.088 153.227 115.364 153.227 110.77C153.227 106.177 156.95 102.453 161.543 102.453C166.136 102.453 169.86 106.177 169.86 110.77C169.86 115.364 166.136 119.088 161.543 119.088Z" fill="#2F2E41"/>
<path d="M160.222 117.509C160.049 117.508 159.877 117.513 159.702 117.502L159.685 117.5C157.484 117.356 155.432 116.343 153.978 114.685C152.524 113.027 151.788 110.859 151.932 108.659C152.076 106.458 153.087 104.405 154.745 102.95C156.402 101.496 158.569 100.759 160.769 100.901C160.944 100.913 161.115 100.939 161.286 100.961C159.172 100.955 157.134 101.756 155.589 103.2C154.045 104.645 153.109 106.624 152.974 108.734C152.838 110.845 153.512 112.928 154.859 114.558C156.206 116.189 158.124 117.244 160.222 117.509V117.509Z" fill="#2F2E41"/>
<path d="M140.752 136.242C139.316 136.242 138.153 134.613 138.153 132.604C138.153 130.594 139.316 128.965 140.752 128.965C142.187 128.965 143.351 130.594 143.351 132.604C143.351 134.613 142.187 136.242 140.752 136.242Z" fill="#FFB8B8"/>
<path d="M109.625 253.279L98.9413 260.841C98.0112 261.499 97.2423 262.359 96.6923 263.357C96.1422 264.355 95.8252 265.465 95.7652 266.603C95.7051 267.741 95.9035 268.877 96.3454 269.928C96.7874 270.978 97.4615 271.914 98.317 272.667C99.141 273.392 100.113 273.928 101.166 274.238C102.218 274.549 103.326 274.626 104.411 274.464C105.496 274.303 106.533 273.906 107.45 273.303C108.366 272.699 109.14 271.903 109.717 270.97L115.9 260.973L137.657 228.09L128.641 221.456L109.625 253.279Z" fill="#FEB8B8"/>
<path opacity="0.2" d="M126.784 223.811C126.741 229.639 132.5 234.699 140.634 235.431L159.294 195.78C161.252 191.618 161.986 186.985 161.409 182.422C160.832 177.859 158.968 173.554 156.035 170.011L137.198 192.904C136.613 202.856 132.368 213.172 126.784 223.811Z" fill="black"/>
<path d="M126.784 221.275C126.741 227.102 129.964 230.895 138.098 231.627L156.758 191.975C158.716 187.814 159.45 183.18 158.873 178.617C158.296 174.054 156.432 169.749 153.499 166.206L134.662 189.099C134.077 199.051 132.368 210.635 126.784 221.275Z" fill="#FBE4B8"/>
<path d="M115.916 0.561095L153.181 16.7625C154.827 17.4803 156.121 18.8216 156.779 20.4923C157.437 22.163 157.406 24.0265 156.692 25.6741L145.121 52.2943C144.403 53.9403 143.062 55.2344 141.391 55.8927C139.721 56.5509 137.857 56.5196 136.21 55.8055L98.9445 39.6041C97.2986 38.8863 96.0047 37.545 95.3465 35.8743C94.6883 34.2036 94.7197 32.34 95.4337 30.6924L107.005 4.07223C107.723 2.42625 109.064 1.13218 110.735 0.473943C112.405 -0.184295 114.269 -0.152951 115.916 0.561095ZM114.373 4.11046C114.15 4.01461 113.916 3.94721 113.677 3.90986L126.275 27.6824L152.152 20.6004C151.991 20.487 151.819 20.3904 151.638 20.3119L114.373 4.11046ZM100.487 36.0547L137.753 52.2561C138.459 52.5621 139.257 52.5756 139.973 52.2935C140.689 52.0113 141.264 51.4568 141.572 50.7513L153.039 24.3702L125.802 31.8245C125.378 31.9405 124.927 31.9087 124.523 31.7341C124.12 31.5595 123.788 31.2527 123.582 30.8642L110.395 5.98185L98.9827 32.2354C98.6767 32.9415 98.6633 33.7402 98.9454 34.4562C99.2275 35.1722 99.782 35.7471 100.487 36.0547H100.487Z" fill="#E6E6E6"/>
</g>
<defs>
<clipPath id="clip0_588_1736">
<rect width="266" height="410" fill="white" transform="matrix(-1 0 0 1 266 0)"/>
</clipPath>
</defs>
</svg>
