<svg id="svg" version="1.1" xmlns="http://www.w3.org/2000/svg" xmlns:xlink="http://www.w3.org/1999/xlink" width="400" height="300.76502732240436" viewBox="0, 0, 400,300.76502732240436"><g id="svgg"><path id="path0" d="M186.606 21.245 C 166.494 30.906,148.006 39.822,145.523 41.057 C 143.040 42.293,138.981 44.268,136.503 45.445 C 134.025 46.623,131.956 47.628,131.905 47.678 C 131.854 47.729,133.225 50.736,134.951 54.360 C 148.779 83.391,157.546 101.645,157.829 101.990 C 158.013 102.215,159.799 105.804,161.797 109.966 L 165.430 117.532 221.466 117.608 C 252.286 117.650,277.502 117.600,277.502 117.497 C 277.502 117.394,275.877 113.917,273.890 109.770 C 271.904 105.624,270.278 102.104,270.278 101.949 C 270.278 101.544,261.245 82.707,260.792 82.167 C 260.344 81.634,253.424 67.190,253.424 66.789 C 253.424 66.444,243.568 45.846,242.956 44.911 C 242.349 43.985,236.569 31.942,236.569 31.605 C 236.569 31.314,223.640 4.185,223.352 3.871 C 223.255 3.766,206.719 11.584,186.606 21.245 M229.646 25.715 C 229.646 25.904,229.038 27.781,228.295 29.888 L 226.944 33.719 229.499 39.028 C 230.904 41.947,232.054 44.497,232.054 44.694 C 232.054 44.890,229.379 46.343,226.110 47.923 L 220.166 50.796 217.228 44.763 C 214.664 39.498,214.343 38.669,214.709 38.251 C 214.940 37.988,215.221 37.468,215.335 37.096 C 215.566 36.335,215.733 36.293,216.842 36.714 C 217.502 36.965,218.097 36.773,220.767 35.445 L 223.914 33.880 224.669 31.763 C 225.084 30.599,225.840 28.475,226.348 27.044 L 227.273 24.441 228.460 24.907 C 229.112 25.164,229.646 25.527,229.646 25.715 M205.959 51.769 C 205.669 52.023,157.921 74.944,157.682 74.944 C 157.345 74.944,156.065 71.831,156.358 71.726 C 156.524 71.667,167.494 66.406,180.737 60.036 L 204.816 48.454 205.507 50.006 C 205.887 50.860,206.091 51.654,205.959 51.769 M241.596 51.829 C 242.059 52.028,242.486 52.223,242.545 52.262 C 242.603 52.301,242.008 54.173,241.221 56.423 L 239.791 60.513 242.445 66.072 C 243.905 69.129,245.042 71.687,244.973 71.756 C 244.903 71.825,242.167 73.173,238.892 74.751 L 232.938 77.620 231.258 74.100 C 230.334 72.164,229.060 69.479,228.427 68.133 L 227.278 65.687 227.902 64.424 C 228.460 63.296,228.611 63.184,229.312 63.372 C 230.556 63.705,230.637 63.683,233.789 62.171 L 236.782 60.736 238.405 56.101 C 240.073 51.339,240.166 51.214,241.596 51.829 M218.355 76.739 C 218.771 77.562,219.112 78.289,219.112 78.355 C 219.112 78.668,170.566 101.757,170.378 101.534 C 169.850 100.907,169.037 98.607,169.306 98.503 C 169.468 98.440,180.369 93.194,193.529 86.844 C 206.689 80.494,217.488 75.287,217.527 75.272 C 217.566 75.257,217.938 75.917,218.355 76.739 M15.651 220.666 C -0.490 224.105,0.000 223.984,0.000 224.521 C 0.000 225.046,5.059 248.952,5.200 249.093 C 5.609 249.502,29.945 243.813,29.931 243.311 C 29.922 242.996,28.915 238.032,27.693 232.280 L 25.471 221.821 24.511 221.821 C 23.433 221.821,22.887 221.317,22.610 220.069 L 22.423 219.223 15.651 220.666 " stroke="none" fill="#f2f2f2" fill-rule="evenodd"></path><path id="path1" d="M257.867 5.931 C 258.241 6.003,258.783 6.001,259.070 5.925 C 259.358 5.850,259.052 5.791,258.390 5.794 C 257.728 5.798,257.492 5.859,257.867 5.931 M260.045 6.114 C 260.045 6.166,260.485 6.606,261.023 7.092 L 262.002 7.976 261.118 6.998 C 260.293 6.086,260.045 5.881,260.045 6.114 M264.329 10.534 C 264.329 11.114,264.391 11.351,264.466 11.061 C 264.542 10.771,264.542 10.297,264.466 10.008 C 264.391 9.718,264.329 9.955,264.329 10.534 M220.767 35.684 L 218.059 36.965 218.962 37.324 C 220.687 38.010,222.216 38.531,222.276 38.453 C 222.416 38.272,223.616 34.503,223.549 34.456 C 223.509 34.427,222.257 34.980,220.767 35.684 M225.425 38.223 C 224.684 40.375,223.989 42.135,223.880 42.136 C 223.771 42.137,221.754 41.457,219.396 40.626 C 217.039 39.795,215.055 39.171,214.987 39.240 C 214.918 39.308,216.068 41.873,217.541 44.940 L 220.219 50.517 226.061 47.696 C 229.275 46.145,231.874 44.746,231.837 44.587 C 231.732 44.128,226.993 34.312,226.876 34.312 C 226.818 34.312,226.165 36.072,225.425 38.223 M180.737 60.258 C 167.660 66.539,156.848 71.788,156.710 71.921 C 156.490 72.134,157.536 74.643,157.845 74.643 C 158.007 74.643,205.686 51.746,205.841 51.594 C 205.981 51.456,204.951 49.081,204.688 48.933 C 204.593 48.880,193.815 53.976,180.737 60.258 M272.614 54.690 C 272.989 54.762,273.531 54.759,273.818 54.684 C 274.106 54.609,273.800 54.550,273.138 54.553 C 272.476 54.556,272.240 54.618,272.614 54.690 M285.102 54.693 C 285.557 54.762,286.302 54.762,286.757 54.693 C 287.212 54.624,286.840 54.567,285.929 54.567 C 285.019 54.567,284.646 54.624,285.102 54.693 M238.400 64.667 C 237.677 66.760,236.992 68.578,236.878 68.707 C 236.765 68.836,234.672 68.251,232.227 67.407 C 229.783 66.562,227.748 65.915,227.706 65.968 C 227.663 66.021,228.861 68.596,230.368 71.691 L 233.108 77.317 238.826 74.564 C 241.971 73.050,244.597 71.775,244.661 71.731 C 244.818 71.623,243.909 69.554,241.624 64.818 L 239.715 60.862 238.400 64.667 M233.785 62.364 C 232.336 63.039,231.151 63.680,231.151 63.788 C 231.151 64.195,235.094 65.284,235.229 64.915 C 235.672 63.700,236.527 61.102,236.477 61.117 C 236.445 61.128,235.233 61.688,233.785 62.364 M193.324 87.194 L 169.191 98.790 169.841 100.127 C 170.650 101.793,167.429 103.109,195.034 89.836 C 222.736 76.517,218.999 78.599,218.155 76.955 L 217.457 75.597 193.324 87.194 M117.682 111.331 C 106.509 116.440,91.881 123.124,85.177 126.184 L 72.987 131.746 72.909 144.408 L 72.830 157.070 74.564 158.393 C 75.518 159.121,78.612 161.357,81.441 163.363 C 89.496 169.073,90.142 170.402,88.005 176.855 C 85.805 183.500,83.138 186.907,80.136 186.907 C 79.286 186.907,78.857 187.198,77.438 188.731 C 75.671 190.639,74.505 191.422,73.431 191.422 L 72.791 191.422 72.976 204.439 C 73.077 211.599,73.151 218.676,73.141 220.166 C 73.130 221.655,73.055 233.405,72.974 246.275 L 72.826 269.676 184.646 269.676 L 296.465 269.676 318.139 251.760 C 330.059 241.906,340.115 233.722,340.486 233.573 C 340.856 233.424,342.291 232.951,343.676 232.522 C 355.534 228.852,362.687 220.434,364.918 207.524 C 365.626 203.423,365.615 203.354,364.259 203.593 C 358.720 204.565,350.057 208.397,350.541 209.659 C 350.838 210.433,350.008 216.117,349.265 218.393 C 347.954 222.408,345.205 226.918,341.764 230.700 L 340.120 232.506 340.113 167.468 L 340.105 102.429 331.478 102.231 C 315.123 101.853,293.334 101.977,293.722 102.444 C 293.985 102.761,293.930 103.023,293.488 103.569 C 292.916 104.276,292.917 104.293,293.623 105.498 C 294.654 107.257,296.163 111.027,296.163 111.844 C 296.163 112.811,294.080 113.708,286.501 116.004 C 284.006 116.760,283.861 116.854,282.513 118.590 L 281.114 120.391 213.020 120.391 L 144.925 120.391 150.039 117.518 L 155.153 114.644 159.542 114.734 L 163.931 114.823 160.878 108.503 L 157.824 102.182 147.911 102.111 L 137.998 102.040 117.682 111.331 M270.677 102.453 C 270.766 102.685,272.097 105.529,273.636 108.774 L 276.434 114.673 278.236 114.673 L 280.037 114.673 282.048 112.618 C 285.259 109.336,285.901 107.108,284.442 104.301 C 284.101 103.645,283.822 102.866,283.822 102.570 C 283.822 102.069,283.360 102.032,277.169 102.032 C 271.589 102.032,270.541 102.100,270.677 102.453 M339.804 102.740 C 339.804 102.798,338.822 103.492,337.622 104.282 C 335.166 105.897,335.203 105.690,337.698 103.869 C 339.203 102.770,339.804 102.448,339.804 102.740 M72.849 181.114 L 72.862 184.048 73.889 182.885 L 74.917 181.721 74.023 179.950 C 72.859 177.644,72.835 177.668,72.849 181.114 M396.122 280.643 C 396.103 280.963,395.786 281.573,395.419 281.997 L 394.750 282.769 395.599 281.980 C 396.141 281.476,396.395 280.987,396.302 280.626 C 396.164 280.086,396.156 280.087,396.122 280.643 " stroke="none" fill="#39374d" fill-rule="evenodd"></path><path id="path2" d="M141.021 36.740 C 141.241 37.096,142.965 37.914,142.965 37.662 C 142.965 37.544,142.494 37.233,141.918 36.972 C 141.342 36.711,140.939 36.607,141.021 36.740 M106.578 46.677 C 106.181 46.836,105.916 47.025,105.989 47.098 C 106.206 47.314,107.449 46.904,107.449 46.617 C 107.449 46.470,107.415 46.359,107.374 46.370 C 107.333 46.380,106.974 46.519,106.578 46.677 M117.081 49.163 C 117.081 49.272,117.351 49.631,117.682 49.962 C 118.014 50.293,118.284 50.450,118.284 50.310 C 118.284 50.170,118.014 49.811,117.682 49.511 C 117.351 49.211,117.081 49.055,117.081 49.163 M126.327 59.616 C 126.695 59.999,127.072 60.237,127.164 60.144 C 127.257 60.052,126.956 59.738,126.495 59.448 L 125.658 58.919 126.327 59.616 M130.926 62.302 C 131.174 62.463,131.580 62.594,131.828 62.594 C 132.230 62.594,132.230 62.562,131.828 62.302 C 131.580 62.142,131.174 62.011,130.926 62.011 C 130.524 62.011,130.524 62.043,130.926 62.302 M329.571 100.376 C 329.358 100.633,329.252 100.910,329.335 100.993 C 329.418 101.075,329.659 100.934,329.872 100.677 C 330.085 100.421,330.191 100.143,330.108 100.061 C 330.026 99.978,329.784 100.120,329.571 100.376 M346.736 104.138 C 346.736 104.387,346.867 104.793,347.028 105.041 C 347.287 105.443,347.320 105.443,347.320 105.041 C 347.320 104.793,347.188 104.387,347.028 104.138 C 346.768 103.737,346.736 103.737,346.736 104.138 M384.951 147.714 C 384.951 147.885,384.685 147.955,384.359 147.870 C 382.270 147.324,375.019 151.159,375.019 152.810 C 375.019 152.915,374.816 153.224,374.568 153.498 C 374.321 153.772,374.088 154.358,374.051 154.801 C 374.015 155.243,373.864 155.606,373.717 155.606 C 373.570 155.606,373.530 155.816,373.629 156.073 C 373.732 156.341,373.681 156.461,373.510 156.356 C 373.347 156.255,373.213 156.317,373.213 156.494 C 373.213 156.671,372.952 157.390,372.634 158.092 C 372.001 159.486,371.660 162.150,371.598 166.186 C 371.576 167.618,371.482 168.744,371.389 168.687 C 371.296 168.630,371.214 170.037,371.207 171.814 C 371.199 173.591,371.095 175.702,370.974 176.504 C 370.813 177.583,370.860 178.029,371.157 178.217 C 371.382 178.360,371.413 178.473,371.227 178.475 C 371.017 178.478,370.933 179.055,370.997 180.060 C 371.215 183.506,371.134 188.026,370.833 189.209 C 369.687 193.708,369.715 200.752,370.879 200.752 C 371.004 200.752,371.106 201.075,371.106 201.468 C 371.106 202.728,371.972 204.330,372.918 204.819 C 373.681 205.214,373.776 205.380,373.515 205.868 C 373.344 206.187,373.262 206.916,373.333 207.488 C 373.404 208.061,373.379 208.612,373.278 208.714 C 373.176 208.815,373.048 209.794,372.992 210.888 C 372.850 213.684,373.668 214.291,378.124 214.697 C 380.300 214.895,380.909 213.976,382.684 207.825 L 383.379 205.418 387.250 205.064 C 389.379 204.869,392.814 204.414,394.883 204.053 C 396.953 203.692,398.915 203.377,399.244 203.354 C 400.151 203.289,400.144 202.355,399.226 200.966 C 398.579 199.990,398.350 199.189,398.173 197.300 C 398.049 195.971,397.807 194.522,397.636 194.079 C 397.464 193.637,397.293 192.520,397.256 191.596 C 397.219 190.673,397.090 189.917,396.970 189.917 C 396.851 189.917,396.846 189.477,396.960 188.939 C 397.073 188.401,397.157 187.758,397.146 187.509 C 397.135 187.261,397.332 186.900,397.584 186.706 C 397.953 186.424,398.039 185.650,398.021 182.793 C 397.987 177.607,397.824 173.253,397.652 172.944 C 397.570 172.795,397.513 170.324,397.525 167.451 C 397.537 164.578,397.456 162.227,397.344 162.226 C 397.232 162.225,397.117 161.765,397.089 161.204 C 397.041 160.250,394.658 155.542,393.874 154.850 C 393.040 154.115,391.555 151.964,391.710 151.715 C 391.803 151.564,391.473 151.352,390.977 151.243 C 389.849 150.995,389.633 150.666,390.215 150.083 C 391.192 149.106,390.218 148.284,387.660 147.928 C 387.246 147.871,386.467 147.729,385.929 147.614 C 385.322 147.484,384.951 147.522,384.951 147.714 M55.530 153.124 C 52.442 154.846,49.399 155.234,46.528 154.270 C 44.398 153.555,42.421 153.490,42.187 154.128 C 42.132 154.279,41.912 154.402,41.698 154.402 C 41.147 154.402,37.954 155.844,37.000 156.523 C 36.560 156.837,36.123 157.016,36.029 156.922 C 35.333 156.226,32.416 160.749,32.976 161.656 C 33.068 161.805,33.034 161.927,32.900 161.927 C 32.766 161.927,32.635 164.061,32.610 166.667 C 32.585 169.274,32.489 172.084,32.397 172.912 C 32.144 175.200,31.887 178.335,31.707 181.339 C 31.618 182.829,31.475 185.132,31.390 186.456 C 31.305 187.780,31.198 191.234,31.151 194.131 C 31.093 197.798,30.923 199.901,30.593 201.053 C 29.588 204.566,28.873 207.259,28.723 208.101 C 28.637 208.584,28.518 209.058,28.459 209.155 C 28.281 209.446,27.905 211.676,27.872 212.641 C 27.843 213.476,28.016 213.631,30.163 214.696 C 32.814 216.011,33.799 215.997,33.613 214.650 C 33.552 214.207,33.699 213.541,33.940 213.170 C 34.181 212.799,34.299 212.291,34.204 212.041 C 34.108 211.792,34.142 211.588,34.280 211.588 C 34.494 211.588,35.768 208.260,35.939 207.255 C 35.970 207.072,36.163 206.618,36.368 206.245 C 36.573 205.873,36.651 205.568,36.543 205.568 C 36.434 205.568,36.496 205.386,36.680 205.164 C 36.864 204.942,36.926 204.671,36.817 204.562 C 36.708 204.453,36.777 204.364,36.970 204.364 C 37.163 204.364,37.321 204.101,37.321 203.780 C 37.321 203.459,37.459 203.111,37.627 203.007 C 37.795 202.903,37.855 202.691,37.758 202.535 C 37.662 202.380,37.762 202.055,37.979 201.814 C 38.916 200.774,39.137 200.451,38.913 200.442 C 38.783 200.437,38.913 200.295,39.202 200.126 C 39.492 199.958,39.729 199.681,39.729 199.512 C 39.729 199.343,39.940 198.994,40.198 198.736 C 40.456 198.478,40.593 198.074,40.502 197.839 C 40.412 197.603,40.468 197.491,40.627 197.589 C 40.926 197.774,41.416 196.372,41.283 195.711 C 41.242 195.504,41.333 195.335,41.485 195.335 C 42.305 195.335,42.525 190.919,42.024 184.500 C 41.912 183.061,41.942 182.530,42.108 183.035 C 42.592 184.514,42.835 187.048,42.761 189.842 C 42.678 192.966,42.524 192.807,45.167 192.333 C 50.847 191.315,64.320 190.429,66.648 190.920 C 67.619 191.125,67.774 191.097,67.505 190.769 C 66.652 189.732,65.753 184.589,66.276 183.741 C 66.381 183.573,66.436 183.000,66.399 182.468 C 66.362 181.936,66.449 181.462,66.591 181.415 C 66.734 181.367,66.877 180.824,66.909 180.207 C 66.941 179.590,67.056 179.084,67.163 179.083 C 67.271 179.083,67.528 178.371,67.734 177.502 C 67.940 176.633,68.203 175.854,68.319 175.771 C 68.435 175.688,68.722 175.214,68.957 174.718 C 69.683 173.181,70.634 173.482,71.804 175.621 C 73.937 179.519,74.944 181.487,74.944 181.757 C 74.944 182.134,72.033 185.087,70.805 185.955 C 69.547 186.845,69.551 187.646,70.823 189.491 C 72.569 192.024,73.937 191.859,77.201 188.719 C 78.390 187.575,79.349 186.919,80.009 186.797 C 83.321 186.185,85.304 183.764,87.607 177.517 C 90.156 170.602,89.517 169.288,80.528 162.972 C 77.332 160.726,73.865 158.083,72.822 157.097 C 71.780 156.111,70.680 155.305,70.377 155.305 C 70.074 155.305,69.827 155.178,69.827 155.024 C 69.827 154.770,68.936 154.336,68.172 154.217 C 68.006 154.191,67.803 154.144,67.720 154.113 C 67.427 154.000,64.738 153.536,63.205 153.334 C 62.792 153.280,61.980 153.091,61.402 152.915 C 59.786 152.425,56.580 152.538,55.530 153.124 M345.728 194.571 C 345.450 194.849,345.222 194.974,345.222 194.848 C 345.222 194.595,344.506 195.338,343.506 196.630 C 343.147 197.093,342.743 197.500,342.608 197.532 C 342.279 197.612,340.589 199.549,340.848 199.549 C 340.960 199.549,340.838 199.761,340.578 200.021 C 340.160 200.440,340.107 202.326,340.118 216.350 L 340.131 232.205 341.622 230.549 C 348.875 222.496,352.407 210.937,349.751 203.951 C 349.599 203.550,349.556 203.141,349.656 203.041 C 349.755 202.941,349.708 202.859,349.550 202.859 C 349.393 202.859,349.245 202.622,349.223 202.333 C 349.142 201.300,348.901 200.288,348.523 199.398 C 348.312 198.901,348.089 198.229,348.027 197.903 C 347.965 197.578,347.715 197.007,347.471 196.635 C 347.227 196.263,347.028 195.776,347.028 195.553 C 347.028 194.592,346.276 194.023,345.728 194.571 " stroke="none" fill="#c29c89" fill-rule="evenodd"></path><path id="path3" d="M253.987 0.555 C 249.907 1.620,246.860 6.299,248.537 8.924 C 249.050 9.726,252.290 8.747,254.897 7.003 C 258.101 4.857,261.594 5.804,262.298 9.007 C 262.532 10.076,262.651 10.119,263.426 9.418 C 264.270 8.653,264.603 9.387,264.412 11.588 C 264.272 13.186,265.633 15.617,266.158 14.708 C 268.017 11.494,268.260 9.558,267.157 6.772 C 266.764 5.779,266.273 4.424,266.066 3.762 C 264.999 0.347,259.935 -0.997,253.987 0.555 M297.538 52.035 C 296.757 53.298,291.705 54.413,285.325 54.729 L 281.313 54.929 281.029 55.831 C 280.285 58.196,277.726 64.409,277.496 64.409 C 277.353 64.409,277.144 64.259,277.031 64.076 C 276.887 63.844,276.746 63.867,276.566 64.151 C 276.153 64.802,276.257 65.119,276.749 64.710 C 277.822 63.820,275.852 68.222,273.735 71.447 C 271.388 75.021,271.739 80.228,274.630 84.725 C 277.512 89.208,280.219 93.853,280.631 95.022 C 280.857 95.662,281.521 97.137,282.106 98.299 C 282.692 99.461,283.399 101.217,283.678 102.200 C 283.957 103.183,284.386 104.305,284.631 104.693 C 285.971 106.813,285.094 109.504,282.048 112.618 L 280.037 114.673 278.318 114.673 C 276.324 114.673,276.382 114.565,277.356 116.489 L 278.114 117.983 221.738 117.983 L 165.362 117.983 164.551 116.328 L 163.739 114.673 159.421 114.673 L 155.103 114.673 150.014 117.532 L 144.925 120.391 213.020 120.391 L 281.114 120.391 282.513 118.590 C 283.861 116.854,284.006 116.760,286.501 116.004 C 294.080 113.708,296.163 112.811,296.163 111.844 C 296.163 111.027,294.654 107.257,293.623 105.498 C 292.930 104.315,292.925 104.264,293.457 103.607 C 293.986 102.954,293.986 102.894,293.443 101.804 C 291.300 97.501,291.127 97.011,290.941 94.719 C 290.641 91.022,287.395 82.867,284.635 78.874 L 283.919 77.837 289.877 70.296 C 297.206 61.018,298.075 59.479,298.222 55.508 C 298.322 52.836,298.013 51.267,297.538 52.035 M264.861 57.982 C 261.467 60.703,257.521 63.757,256.091 64.768 L 253.492 66.607 255.443 70.700 C 256.516 72.951,258.146 76.384,259.065 78.330 C 259.984 80.275,260.825 81.866,260.934 81.866 C 261.340 81.866,263.035 77.191,262.865 76.541 C 262.715 75.966,262.945 75.766,264.647 74.994 C 266.541 74.136,269.437 72.195,270.203 71.272 C 270.484 70.934,270.499 70.588,270.261 69.906 C 269.886 68.830,270.502 66.054,271.609 63.829 C 271.986 63.072,272.659 60.963,273.105 59.142 C 273.550 57.321,273.986 55.594,274.073 55.305 C 274.202 54.876,274.043 54.778,273.216 54.778 C 272.096 54.778,271.287 54.293,271.131 53.530 C 271.058 53.170,269.351 54.382,264.861 57.982 M337.698 103.869 C 335.203 105.690,335.166 105.897,337.622 104.282 C 338.822 103.492,339.804 102.798,339.804 102.740 C 339.804 102.448,339.203 102.770,337.698 103.869 M380.534 127.434 C 379.036 128.114,378.535 129.139,378.598 131.400 C 378.637 132.837,378.450 133.912,377.889 135.468 C 376.592 139.062,376.894 139.650,380.040 139.658 C 382.759 139.666,383.145 140.246,383.145 144.328 C 383.145 147.334,383.447 147.657,386.015 147.392 C 388.361 147.149,389.925 146.232,390.609 144.697 C 390.922 143.992,392.069 142.494,393.156 141.366 C 396.000 138.417,396.491 137.127,395.301 135.731 C 394.725 135.054,392.595 130.841,392.364 129.919 C 391.864 127.930,383.372 126.146,380.534 127.434 M54.534 130.483 C 49.060 131.671,44.811 135.361,44.341 139.333 C 44.056 141.735,45.439 153.816,45.996 153.790 C 47.929 153.702,51.021 152.624,51.202 151.977 C 51.325 151.535,51.419 151.444,51.437 151.750 C 51.485 152.560,51.792 152.584,54.376 151.982 C 55.718 151.670,57.610 151.337,58.581 151.244 C 59.552 151.150,60.386 150.956,60.436 150.813 C 60.485 150.670,60.756 150.605,61.038 150.669 C 61.761 150.834,66.179 149.796,66.235 149.449 C 66.261 149.291,65.827 148.919,65.270 148.624 C 62.750 147.284,62.616 141.151,64.993 135.932 C 66.819 131.925,61.252 129.024,54.534 130.483 M60.610 149.059 C 60.728 149.551,60.684 149.887,60.502 149.887 C 60.334 149.887,60.196 149.458,60.196 148.934 C 60.196 147.838,60.327 147.878,60.610 149.059 M52.370 191.734 C 42.981 192.725,44.361 192.425,43.766 193.604 C 43.494 194.142,42.960 194.921,42.578 195.335 C 40.530 197.555,37.995 208.031,36.721 219.538 C 36.022 225.846,35.989 225.672,37.923 225.900 C 38.337 225.949,40.640 226.388,43.040 226.877 C 54.605 229.229,54.939 229.257,55.274 227.920 C 55.435 227.280,55.507 227.239,55.739 227.653 C 55.951 228.033,56.299 228.105,57.277 227.974 C 61.209 227.446,63.127 227.092,66.516 226.267 C 68.585 225.763,70.681 225.301,71.172 225.240 C 74.207 224.861,74.191 219.628,71.107 203.635 C 69.099 193.226,68.418 191.418,66.366 191.063 C 64.240 190.695,60.534 190.873,52.370 191.734 M397.486 278.003 L 396.025 278.749 396.220 280.044 C 396.962 284.995,384.734 284.902,383.105 279.944 C 383.004 279.639,381.978 280.068,379.257 281.552 C 377.216 282.665,374.852 283.782,374.003 284.033 C 369.585 285.343,367.857 287.569,370.278 288.832 C 371.476 289.456,395.057 289.656,395.823 289.048 C 396.051 288.867,396.846 288.642,397.589 288.547 C 400.131 288.223,400.618 285.565,399.319 279.110 L 398.947 277.257 397.486 278.003 M59.146 290.830 C 59.274 292.020,59.164 294.153,58.851 296.581 C 58.251 301.238,57.834 300.807,63.058 300.925 C 69.140 301.062,69.938 300.256,67.376 296.564 C 66.431 295.203,66.371 294.971,66.448 292.969 C 66.510 291.346,66.419 290.738,66.071 290.450 C 65.819 290.240,65.613 290.169,65.613 290.291 C 65.613 290.413,65.279 290.294,64.871 290.027 C 64.380 289.705,63.466 289.541,62.163 289.541 C 61.052 289.541,60.196 289.410,60.196 289.240 C 60.196 289.074,59.914 288.939,59.570 288.939 C 58.981 288.939,58.956 289.051,59.146 290.830 M37.230 289.740 C 36.870 289.933,36.488 290.036,36.381 289.969 C 35.955 289.706,35.588 290.686,35.431 292.498 C 35.286 294.192,35.113 294.599,33.868 296.183 C 31.129 299.670,32.020 300.573,38.504 300.883 L 42.466 301.072 42.435 296.887 C 42.415 294.046,42.546 292.194,42.846 291.121 C 43.088 290.252,43.265 289.530,43.238 289.516 C 42.811 289.291,37.712 289.482,37.230 289.740 " stroke="none" fill="#2f2e41" fill-rule="evenodd"></path><path id="path4" d="M375.826 131.523 C 371.831 134.057,370.831 139.963,373.771 143.662 C 374.488 144.564,374.667 145.139,374.835 147.091 C 374.947 148.380,375.120 150.089,375.221 150.888 L 375.403 152.340 376.791 150.996 C 378.765 149.083,381.547 147.863,384.199 147.748 L 385.102 147.709 384.199 147.517 L 383.296 147.324 383.074 144.317 C 382.762 140.107,382.672 139.955,380.462 139.955 C 376.827 139.955,376.402 139.368,377.529 135.907 C 379.091 131.111,378.574 129.781,375.826 131.523 M64.408 138.172 C 62.674 144.473,63.711 150.140,66.040 147.087 C 68.415 143.974,68.329 139.513,65.837 136.517 L 65.105 135.637 64.408 138.172 M55.079 152.015 C 53.672 152.328,51.132 152.883,49.436 153.249 C 45.905 154.010,45.706 154.214,47.998 154.727 C 49.799 155.130,53.012 154.460,55.421 153.178 C 56.023 152.858,56.869 152.596,57.302 152.596 C 57.888 152.596,58.089 152.442,58.089 151.994 C 58.089 151.663,57.987 151.404,57.863 151.419 C 57.739 151.434,56.486 151.702,55.079 152.015 M66.317 186.174 C 66.047 186.877,67.089 190.400,67.741 190.990 C 68.243 191.444,68.469 191.459,69.678 191.121 C 71.431 190.630,71.496 190.487,70.584 189.143 C 69.766 187.938,69.603 186.780,70.200 186.411 C 70.691 186.108,69.498 185.773,67.786 185.734 C 66.875 185.712,66.444 185.841,66.317 186.174 M26.133 214.679 C 23.029 217.486,21.994 219.655,23.042 221.152 C 24.184 222.782,26.695 221.552,29.550 217.964 C 31.687 215.278,31.686 215.429,29.571 214.408 C 28.619 213.949,27.773 213.536,27.690 213.490 C 27.607 213.444,26.906 213.979,26.133 214.679 M374.120 215.856 C 374.135 223.328,378.067 229.295,380.232 225.132 C 381.070 223.518,380.483 214.211,379.574 214.710 C 379.312 214.853,375.629 214.438,374.793 214.171 C 374.139 213.962,374.116 214.020,374.120 215.856 M66.968 226.361 C 65.147 226.836,62.114 227.464,60.229 227.758 L 56.801 228.292 57.006 233.149 C 57.119 235.820,57.413 240.222,57.660 242.931 C 57.907 245.639,58.231 252.393,58.381 257.938 C 58.603 266.163,58.775 268.687,59.313 271.633 C 59.823 274.425,60.006 276.833,60.119 282.242 L 60.266 289.240 62.262 289.250 C 63.539 289.256,64.470 289.419,64.843 289.701 C 65.746 290.384,65.771 290.335,66.174 287.113 C 66.382 285.446,66.807 282.907,67.118 281.470 C 67.767 278.476,68.200 271.962,68.622 258.841 C 68.784 253.792,69.055 248.239,69.224 246.501 C 69.498 243.679,71.031 225.927,71.031 225.574 C 71.031 225.342,70.441 225.456,66.968 226.361 M37.907 226.078 C 37.898 226.137,37.771 231.874,37.625 238.826 C 37.453 246.939,37.072 255.402,36.559 262.453 C 35.505 276.961,35.769 290.211,37.099 289.499 C 37.425 289.325,38.658 289.229,39.839 289.286 L 41.986 289.391 42.359 285.828 C 42.850 281.128,43.817 275.434,44.538 272.995 C 45.631 269.300,46.522 263.970,47.257 256.734 C 47.450 254.831,48.196 250.226,48.915 246.501 C 50.478 238.398,51.884 229.480,51.682 228.953 C 51.597 228.731,50.426 228.412,48.874 228.188 C 45.908 227.759,39.191 226.457,38.421 226.161 C 38.147 226.056,37.916 226.019,37.907 226.078 " stroke="none" fill="#ffb9b9" fill-rule="evenodd"></path><path id="path5" d="M226.393 26.893 C 225.909 28.242,224.799 31.411,223.927 33.935 C 223.054 36.460,222.230 38.525,222.096 38.525 C 221.961 38.525,220.541 38.051,218.941 37.472 C 215.368 36.179,215.599 36.169,215.163 37.624 C 214.725 39.085,214.198 38.726,219.466 40.553 C 223.370 41.906,223.907 42.026,224.088 41.584 C 224.201 41.309,224.673 40.000,225.138 38.676 C 225.603 37.351,226.807 33.965,227.814 31.151 C 229.984 25.084,229.942 25.490,228.460 24.907 L 227.273 24.441 226.393 26.893 M237.642 58.315 C 236.331 62.081,235.217 65.215,235.168 65.280 C 235.118 65.346,233.642 64.893,231.888 64.274 C 230.134 63.656,228.620 63.228,228.524 63.325 C 228.428 63.421,228.093 64.072,227.780 64.771 C 227.467 65.470,227.297 65.956,227.403 65.850 C 227.508 65.745,229.672 66.386,232.211 67.275 L 236.826 68.893 237.725 66.275 C 238.218 64.835,239.515 61.159,240.605 58.107 C 241.696 55.054,242.588 52.474,242.588 52.373 C 242.588 52.181,240.792 51.467,240.308 51.467 C 240.153 51.467,238.953 54.549,237.642 58.315 M193.430 117.908 C 208.853 117.951,234.180 117.951,249.713 117.908 C 265.245 117.865,252.626 117.830,221.670 117.830 C 190.715 117.830,178.007 117.865,193.430 117.908 " stroke="none" fill="#8fac89" fill-rule="evenodd"></path><path id="path6" d="M255.212 7.000 C 253.446 8.058,249.898 9.634,249.285 9.632 C 248.799 9.631,248.815 12.713,249.308 14.051 C 250.440 17.121,253.750 19.564,256.778 19.564 L 258.231 19.564 259.333 21.896 C 261.199 25.847,261.934 25.604,266.265 19.607 C 268.447 16.586,268.497 16.477,267.907 16.064 C 267.572 15.829,267.116 15.455,266.893 15.232 C 266.670 15.010,266.208 14.738,265.865 14.629 C 264.540 14.209,264.108 13.327,264.214 11.259 C 264.312 9.362,263.742 8.492,263.247 9.782 C 262.950 10.557,262.494 10.279,262.177 9.130 C 261.314 6.007,258.373 5.107,255.212 7.000 M238.265 35.137 C 240.204 39.263,240.112 39.137,240.642 38.412 C 241.135 37.737,239.939 35.062,238.169 32.882 C 236.479 30.800,236.504 31.389,238.265 35.137 M271.987 63.403 C 269.759 67.801,269.799 71.332,272.075 71.332 C 274.683 71.332,277.383 64.126,275.245 62.873 C 273.272 61.718,272.801 61.794,271.987 63.403 M63.292 144.018 C 63.294 144.846,63.352 145.149,63.421 144.691 C 63.491 144.234,63.489 143.556,63.417 143.186 C 63.346 142.816,63.289 143.190,63.292 144.018 M61.318 289.457 C 61.852 289.524,62.800 289.525,63.424 289.460 C 64.049 289.395,63.612 289.340,62.453 289.339 C 61.294 289.337,60.783 289.391,61.318 289.457 " stroke="none" fill="#a0616a" fill-rule="evenodd"></path><path id="path7" d="M268.895 16.182 C 268.713 16.304,267.541 17.825,266.289 19.564 C 263.338 23.663,262.447 24.507,261.112 24.469 C 258.229 24.387,253.771 32.789,255.240 35.535 C 255.733 36.457,252.962 43.343,252.101 43.335 C 250.428 43.321,243.079 39.695,242.037 38.370 C 241.312 37.448,241.267 37.448,240.670 38.359 C 240.207 39.066,240.249 39.222,241.701 42.196 L 243.215 45.297 248.204 48.834 C 255.573 54.057,256.087 53.838,262.625 42.703 L 263.794 40.710 267.305 43.685 C 270.258 46.187,270.847 46.829,271.016 47.731 C 271.172 48.561,271.416 48.872,272.102 49.111 C 273.186 49.489,273.187 49.421,272.084 51.213 C 270.679 53.497,270.968 54.477,273.047 54.477 C 274.462 54.477,274.472 54.620,273.345 59.030 C 272.814 61.109,272.653 62.181,272.886 62.091 C 273.419 61.887,276.741 63.527,277.260 64.250 C 277.551 64.656,279.799 59.304,280.942 55.484 C 281.121 54.885,281.400 54.821,284.661 54.633 C 295.815 53.991,298.042 53.026,297.396 49.113 C 296.625 44.451,296.455 43.956,295.015 42.188 C 293.363 40.159,291.843 37.700,289.594 33.414 C 286.189 26.925,281.235 20.691,277.522 18.223 C 274.945 16.509,270.113 15.367,268.895 16.182 M331.452 102.256 C 333.066 102.310,335.707 102.310,337.321 102.256 C 338.935 102.202,337.615 102.158,334.387 102.158 C 331.159 102.158,329.838 102.202,331.452 102.256 M379.609 139.861 C 379.898 139.937,380.372 139.937,380.662 139.861 C 380.952 139.786,380.715 139.724,380.135 139.724 C 379.556 139.724,379.319 139.786,379.609 139.861 M76.479 189.360 C 75.420 190.367,74.810 191.049,75.125 190.877 C 75.688 190.569,78.814 187.500,78.544 187.520 C 78.467 187.526,77.538 188.354,76.479 189.360 M63.134 190.732 C 63.508 190.804,64.050 190.801,64.338 190.726 C 64.625 190.651,64.319 190.592,63.657 190.595 C 62.995 190.598,62.759 190.660,63.134 190.732 M394.131 204.240 C 391.979 204.622,388.694 205.029,386.832 205.145 L 383.446 205.355 383.128 206.590 C 382.364 209.560,381.246 212.721,380.617 213.695 C 380.069 214.541,379.987 214.925,380.202 215.651 C 380.634 217.108,380.842 223.973,380.481 224.890 C 379.750 226.753,378.030 227.010,376.591 225.473 L 375.849 224.680 376.018 225.583 C 376.110 226.080,376.271 227.434,376.374 228.593 C 377.781 244.329,378.241 246.579,380.405 248.318 C 382.669 250.138,383.693 255.314,383.409 263.506 C 382.812 280.680,382.829 280.781,386.593 282.634 C 391.206 284.905,396.087 283.489,396.087 279.879 L 396.087 278.397 397.743 277.665 C 399.130 277.052,399.398 276.808,399.398 276.160 C 399.398 275.735,399.566 275.118,399.771 274.789 C 400.074 274.304,400.062 274.063,399.705 273.514 C 399.349 272.967,399.259 271.330,399.234 265.011 C 399.202 256.712,399.176 256.447,397.094 242.889 L 396.007 235.816 396.075 226.655 C 396.157 215.409,396.184 215.209,397.950 213.041 C 399.940 210.597,400.427 207.819,399.506 204.151 C 399.298 203.324,399.301 203.324,394.131 204.240 M350.421 210.685 C 350.421 211.430,350.479 211.734,350.551 211.362 C 350.623 210.989,350.623 210.380,350.551 210.008 C 350.479 209.635,350.421 209.940,350.421 210.685 " stroke="none" fill="#575a89" fill-rule="evenodd"></path><path id="path8" d="M132.236 35.919 C 131.932 36.089,131.411 36.260,131.079 36.298 C 130.746 36.337,130.440 36.396,130.399 36.431 C 130.304 36.510,129.817 36.633,129.403 36.682 C 129.228 36.702,129.167 36.853,129.268 37.017 C 129.373 37.187,129.253 37.238,128.985 37.135 C 128.671 37.015,128.518 37.131,128.518 37.490 C 128.518 37.783,128.433 37.939,128.330 37.836 C 128.227 37.732,127.878 37.947,127.554 38.312 C 127.231 38.678,127.053 38.807,127.158 38.600 C 127.263 38.394,127.206 38.224,127.031 38.224 C 126.855 38.224,126.712 38.435,126.712 38.693 C 126.712 38.952,126.575 39.078,126.408 38.975 C 126.241 38.872,126.004 39.059,125.882 39.391 C 125.759 39.723,125.523 39.982,125.357 39.967 C 125.192 39.952,124.853 40.332,124.605 40.813 C 124.357 41.293,123.981 41.795,123.771 41.930 C 123.561 42.064,123.467 42.301,123.563 42.456 C 123.659 42.612,123.603 42.739,123.439 42.739 C 123.131 42.739,122.718 43.695,122.626 44.620 C 122.597 44.910,122.540 45.248,122.500 45.372 C 122.460 45.497,122.443 45.700,122.462 45.824 C 122.482 45.948,122.383 46.050,122.243 46.050 C 122.103 46.050,122.020 46.524,122.059 47.103 C 122.098 47.682,122.009 48.157,121.862 48.157 C 121.715 48.157,121.595 48.774,121.595 49.529 C 121.595 50.283,121.706 50.832,121.842 50.748 C 121.977 50.665,122.029 50.997,121.958 51.486 C 121.886 51.975,121.962 52.544,122.128 52.749 C 122.293 52.955,122.523 53.564,122.638 54.103 C 122.754 54.643,122.958 55.016,123.093 54.933 C 123.228 54.850,123.418 54.991,123.517 55.247 C 123.618 55.510,123.568 55.633,123.401 55.530 C 123.235 55.428,123.184 55.551,123.286 55.814 C 123.384 56.070,123.581 56.207,123.725 56.118 C 123.868 56.030,124.072 56.301,124.177 56.722 C 124.283 57.143,124.498 57.487,124.655 57.487 C 124.813 57.487,124.861 57.618,124.762 57.778 C 124.663 57.938,125.151 58.480,125.846 58.984 C 126.541 59.488,127.299 60.170,127.530 60.499 C 127.761 60.829,128.213 61.099,128.535 61.099 C 128.856 61.099,129.120 61.242,129.120 61.417 C 129.120 61.593,129.240 61.662,129.387 61.571 C 129.533 61.480,129.814 61.600,130.010 61.836 C 130.207 62.073,130.562 62.192,130.799 62.101 C 131.037 62.010,131.535 62.129,131.906 62.365 C 132.277 62.601,133.021 62.780,133.559 62.762 C 134.097 62.744,134.537 62.807,134.537 62.902 C 134.537 62.997,134.876 63.102,135.290 63.136 C 135.704 63.171,136.042 63.099,136.042 62.976 C 136.042 62.854,136.651 62.765,137.396 62.778 C 139.139 62.809,139.290 63.367,135.290 55.014 C 133.386 51.040,131.828 47.759,131.828 47.725 C 131.828 47.690,135.068 46.118,139.027 44.231 C 146.663 40.590,146.834 40.452,144.944 39.441 C 144.518 39.212,144.169 38.853,144.169 38.643 C 144.169 38.432,144.012 38.163,143.821 38.045 C 143.593 37.904,143.549 37.975,143.693 38.253 C 143.814 38.485,143.693 38.405,143.425 38.074 C 143.158 37.743,142.911 37.515,142.876 37.568 C 142.745 37.771,141.266 37.061,140.899 36.618 C 140.686 36.362,140.320 36.227,140.083 36.318 C 139.847 36.409,139.654 36.346,139.654 36.178 C 139.654 36.010,139.383 35.944,139.052 36.030 C 138.721 36.117,138.450 36.067,138.450 35.920 C 138.450 35.544,132.908 35.543,132.236 35.919 M108.593 46.388 C 108.394 46.511,108.107 46.536,107.957 46.443 C 107.806 46.350,107.580 46.440,107.455 46.642 C 107.329 46.845,106.871 47.032,106.435 47.057 C 106.000 47.082,105.644 47.213,105.644 47.347 C 105.643 47.481,105.508 47.506,105.342 47.404 C 105.177 47.302,105.041 47.414,105.041 47.654 C 105.041 47.894,104.804 48.071,104.515 48.048 C 104.225 48.025,104.022 48.175,104.063 48.382 C 104.105 48.589,103.927 48.758,103.669 48.758 C 103.411 48.758,103.274 48.879,103.365 49.025 C 103.456 49.172,103.247 49.366,102.901 49.456 C 102.555 49.547,102.361 49.765,102.471 49.942 C 102.580 50.119,102.518 50.263,102.333 50.263 C 102.148 50.263,102.075 50.390,102.171 50.546 C 102.267 50.701,102.105 50.968,101.812 51.139 C 101.519 51.309,101.402 51.453,101.552 51.458 C 101.701 51.463,101.583 51.734,101.288 52.059 C 100.975 52.405,100.819 52.906,100.912 53.264 C 101.000 53.600,100.965 53.810,100.835 53.729 C 100.704 53.648,100.628 54.691,100.667 56.046 C 100.707 57.425,100.876 58.556,101.052 58.615 C 101.225 58.673,101.291 59.005,101.200 59.354 C 101.077 59.825,101.136 59.926,101.429 59.745 C 101.694 59.580,101.751 59.618,101.602 59.859 C 101.333 60.294,103.429 63.131,104.200 63.375 C 104.497 63.470,104.740 63.655,104.740 63.787 C 104.740 64.073,107.287 65.093,108.352 65.233 C 110.215 65.477,111.362 65.473,111.362 65.220 C 111.362 65.069,111.701 65.031,112.114 65.135 C 112.528 65.239,112.867 65.203,112.867 65.055 C 112.867 64.907,113.234 64.786,113.682 64.786 C 114.130 64.786,114.548 64.632,114.611 64.445 C 114.673 64.258,114.830 64.170,114.958 64.249 C 115.250 64.429,117.682 62.148,117.682 61.695 C 117.682 61.513,117.804 61.439,117.952 61.531 C 118.279 61.733,118.657 60.856,118.414 60.462 C 118.318 60.307,118.401 60.218,118.598 60.263 C 118.956 60.346,119.001 60.240,119.331 58.540 C 119.427 58.044,119.585 57.434,119.682 57.186 C 119.973 56.440,120.057 54.778,119.804 54.778 C 119.674 54.778,119.615 54.372,119.672 53.875 C 119.730 53.378,119.661 52.972,119.518 52.972 C 119.284 52.972,119.000 52.341,118.729 51.223 C 118.676 51.006,118.284 50.504,117.857 50.109 C 117.430 49.713,117.081 49.239,117.081 49.056 C 117.081 48.873,116.945 48.807,116.780 48.909 C 116.614 49.011,116.479 48.884,116.479 48.626 C 116.479 48.368,116.267 48.157,116.009 48.157 C 115.751 48.157,115.616 48.034,115.708 47.885 C 115.911 47.556,114.216 46.918,113.898 47.203 C 113.774 47.314,113.771 47.235,113.890 47.028 C 114.009 46.821,113.997 46.634,113.863 46.613 C 111.405 46.226,109.021 46.124,108.593 46.388 M335.064 96.536 C 334.691 96.602,334.387 96.782,334.387 96.936 C 334.387 97.090,334.285 97.189,334.161 97.156 C 333.698 97.034,332.579 97.571,332.743 97.836 C 332.836 97.988,332.727 98.041,332.500 97.954 C 331.998 97.761,329.929 99.643,330.095 100.141 C 330.160 100.337,329.947 100.663,329.621 100.866 C 328.138 101.792,329.186 102.032,334.720 102.032 L 340.105 102.032 340.105 108.538 C 340.105 114.897,340.119 115.040,340.708 114.886 C 341.112 114.781,341.241 114.844,341.101 115.077 C 340.964 115.306,341.050 115.297,341.354 115.052 C 341.608 114.846,341.905 114.767,342.014 114.876 C 342.123 114.985,342.212 114.868,342.212 114.616 C 342.212 114.359,342.641 114.031,343.190 113.870 C 343.782 113.696,344.155 113.397,344.133 113.114 C 344.114 112.857,344.317 112.662,344.585 112.681 C 344.874 112.702,345.110 112.442,345.168 112.038 C 345.221 111.666,345.529 111.219,345.853 111.045 C 346.178 110.872,346.363 110.601,346.266 110.444 C 346.169 110.287,346.216 110.158,346.372 110.158 C 346.527 110.158,346.791 109.616,346.959 108.954 C 347.183 108.073,347.172 107.749,346.921 107.746 C 346.698 107.743,346.684 107.663,346.881 107.520 C 347.048 107.398,347.147 106.825,347.101 106.245 C 347.055 105.666,346.974 104.672,346.922 104.037 C 346.870 103.402,346.652 102.773,346.438 102.641 C 346.223 102.508,346.132 102.263,346.235 102.097 C 346.338 101.930,346.222 101.717,345.978 101.623 C 345.733 101.529,345.608 101.258,345.699 101.021 C 345.793 100.775,345.567 100.381,345.175 100.106 C 344.796 99.841,344.601 99.624,344.740 99.624 C 344.880 99.624,344.821 99.414,344.609 99.159 C 344.396 98.903,344.034 98.766,343.804 98.854 C 343.573 98.943,343.467 98.882,343.568 98.719 C 343.669 98.556,343.405 98.265,342.982 98.072 C 342.558 97.879,342.212 97.600,342.212 97.451 C 342.212 97.302,342.086 97.258,341.932 97.354 C 341.778 97.449,341.565 97.387,341.460 97.216 C 341.354 97.045,341.142 96.983,340.987 97.078 C 340.833 97.174,340.707 97.108,340.707 96.933 C 340.707 96.757,340.564 96.614,340.389 96.614 C 340.213 96.614,340.146 96.737,340.238 96.887 C 340.331 97.037,340.138 97.089,339.808 97.003 C 339.479 96.917,339.262 96.760,339.326 96.655 C 339.457 96.442,336.123 96.348,335.064 96.536 M32.611 164.936 C 32.611 166.343,32.663 166.919,32.726 166.215 C 32.789 165.512,32.789 164.360,32.726 163.657 C 32.663 162.953,32.611 163.529,32.611 164.936 M369.687 196.990 C 369.690 197.818,369.748 198.121,369.817 197.663 C 369.886 197.206,369.885 196.529,369.813 196.158 C 369.742 195.788,369.685 196.163,369.687 196.990 " stroke="none" fill="#e5e7e9" fill-rule="evenodd"></path></g></svg>